# xmcd
#
# Track frame offsets: 
#        150
#        13983
#        25625
#        35190
#        47968
#        59715
#        73600
#        84750
#        94090
#        108575
#        119263
#        130688
#        143448
#        154325
#        167733
#        177790
#        188348
#        197563
#        206715
#        215518
#        226283
#        239168
#        252613
#
# Disc length: 3509 seconds
#
# Revision: 0
# Processed by: cddbd v1.4PL0 Copyright (c) Steve Scherf et al.
# Submitted via: ExactAudioCopy v0.90b4
#
DISCID=4c0db317
DTITLE=Sam Cooke And The Soul Stirrers - In The Beginning
DYEAR=1989
DGENRE=Gospel
TTITLE0=He's My Friend 'Til The End
TTITLE1=I'm Gonna Build On That Shore
TTITLE2=Jesus, Wash Away My Troubles
TTITLE3=Must Jesus Bear That Cross Alone
TTITLE4=Jesus, I'll Never Forget
TTITLE5=Nearer To Thee
TTITLE6=Any Day Now
TTITLE7=Touch The Hem Of His Garment
TTITLE8=One More River
TTITLE9=He's So Wonderful
TTITLE10=Jesus Gave Me Water
TTITLE11=I Don't Want To Cry
TTITLE12=Lovable
TTITLE13=Forever
TTITLE14=I'll Come Running Back To You
TTITLE15=That's All I Need To Know
TTITLE16=Happy In Love
TTITLE17=I Need You Now
TTITLE18=Happy In Love (alternative take)
TTITLE19=That's All I Need To Know (without vocal overdubs)
TTITLE20=I Don't Want To Cry (without vocal overdubs)
TTITLE21=Forever (without vocal overdubs)
TTITLE22=Lovable (without vocal overdubs)
EXTD=
EXTT0=
EXTT1=
EXTT2=
EXTT3=
EXTT4=
EXTT5=
EXTT6=
EXTT7=
EXTT8=
EXTT9=
EXTT10=
EXTT11=
EXTT12=
EXTT13=
EXTT14=
EXTT15=
EXTT16=
EXTT17=
EXTT18=
EXTT19=
EXTT20=
EXTT21=
EXTT22=
PLAYORDER=
